<?xml version="1.0" encoding="utf-8"?>
<!-- Generator: Adobe Illustrator 22.1.0, SVG Export Plug-In . SVG Version: 6.00 Build 0)  -->
<svg version="1.1" id="Layer_1" xmlns="http://www.w3.org/2000/svg" xmlns:xlink="http://www.w3.org/1999/xlink" x="0px" y="0px"
	 viewBox="0 0 180 102" style="enable-background:new 0 0 180 102;" xml:space="preserve">
<style type="text/css">
	.st0{enable-background:new    ;}
	.st1{fill:#231F20;}
	.st2{fill:none;stroke:#000000;stroke-linecap:round;stroke-linejoin:round;stroke-miterlimit:10;}
</style>
<g>
	<g>
		<g class="st0">
			<path class="st1" d="M104.3,11.4h5.3c1.2,0,2.2,0.2,3,0.6c0.8,0.4,1.4,1,1.7,1.7c0.4,0.7,0.6,1.5,0.6,2.4c0,0.9-0.2,1.7-0.6,2.4
				s-0.9,1.2-1.7,1.7s-1.7,0.6-2.9,0.6h-2.6v6.3h-2.9C104.3,27.1,104.3,11.4,104.3,11.4z M109.5,18.4c0.8,0,1.5-0.2,1.9-0.6
				s0.6-0.9,0.6-1.6c0-0.7-0.2-1.2-0.6-1.7s-1-0.6-1.8-0.6h-2.4v4.5C107.2,18.4,109.5,18.4,109.5,18.4z"/>
			<path class="st1" d="M117.9,26.5c-0.7-0.8-1-2-1-3.7v-7.4h2.8v7.4c0,0.9,0.1,1.5,0.4,2s0.7,0.6,1.2,0.6c0.5,0,0.9-0.1,1.3-0.4
				c0.4-0.2,0.7-0.6,0.9-1c0.2-0.4,0.3-0.9,0.3-1.5v-7h2.8v9.8c0,0.5,0,0.9,0,1.1c0,0.3,0.1,0.5,0.2,0.8h-2.8
				c-0.1-0.2-0.2-0.4-0.2-0.6c0-0.2,0-0.5,0-0.8c-0.3,0.6-0.8,1-1.4,1.4c-0.6,0.3-1.2,0.5-1.8,0.5C119.6,27.6,118.6,27.2,117.9,26.5
				z"/>
			<path class="st1" d="M133.2,27.1c-0.5-0.3-1-0.6-1.4-1.1l-0.4,1.1h-2v-17h3v0.3c-0.1,0.1-0.1,0.2-0.2,0.3c0,0.1,0,0.3,0,0.6v5
				c0.4-0.4,0.8-0.7,1.3-0.9c0.5-0.2,1-0.3,1.5-0.3c0.9,0,1.7,0.2,2.5,0.7c0.8,0.4,1.4,1.1,1.8,2c0.4,0.9,0.7,2,0.7,3.2
				c0,1.4-0.2,2.6-0.7,3.5c-0.5,1-1.1,1.7-1.9,2.2s-1.6,0.7-2.5,0.7C134.3,27.5,133.8,27.4,133.2,27.1z M135.8,24.8
				c0.4-0.3,0.7-0.7,1-1.2c0.3-0.6,0.4-1.3,0.4-2.2c0-1.2-0.2-2.2-0.7-2.9c-0.4-0.7-1.1-1.1-2-1.1c-0.8,0-1.4,0.3-1.7,1
				c-0.3,0.7-0.5,1.6-0.5,2.7c0,1.4,0.2,2.4,0.6,3.1c0.4,0.6,1,1,1.7,1C135,25.2,135.4,25,135.8,24.8z"/>
			<path class="st1" d="M142.5,27.1v-2.2h3.2V12.3h-3.1v-2.2h5.9v14.8h3.2v2.2L142.5,27.1L142.5,27.1z"/>
			<path class="st1" d="M155.7,27.1v-2.3h2.8v-7.2h-2.7v-2.3h5.5v9.5h2.6v2.3H155.7z M158.8,13.1c-0.3-0.2-0.5-0.4-0.6-0.6
				c-0.2-0.3-0.2-0.5-0.2-0.8c0-0.5,0.2-0.9,0.5-1.2c0.3-0.3,0.8-0.5,1.3-0.5c0.3,0,0.6,0.1,0.9,0.2c0.3,0.2,0.5,0.4,0.7,0.6
				c0.2,0.3,0.2,0.5,0.2,0.8c0,0.3-0.1,0.6-0.2,0.8c-0.2,0.3-0.4,0.5-0.7,0.6c-0.3,0.2-0.6,0.2-0.9,0.2
				C159.4,13.3,159.1,13.3,158.8,13.1z"/>
			<path class="st1" d="M173.7,25.1c0,0,0.3-0.1,0.8-0.4s1-0.6,1.4-1.2l1.6,1.9c-0.6,0.7-1.3,1.2-2.1,1.6c-0.8,0.3-1.6,0.5-2.5,0.5
				c-1.1,0-2.2-0.3-3.1-0.8s-1.6-1.3-2.1-2.2c-0.5-0.9-0.8-2-0.8-3.2c0-1.2,0.3-2.2,0.8-3.2c0.5-1,1.2-1.7,2.1-2.3
				c0.9-0.5,1.9-0.8,3.1-0.8c1,0,1.9,0.2,2.7,0.6c0.8,0.4,1.5,1,2,1.7l-1.6,1.8l0,0c0,0,0,0,0,0c-0.3-0.6-0.8-1-1.3-1.3
				c-0.5-0.3-1.1-0.4-1.9-0.4c-0.6,0-1.1,0.2-1.6,0.5s-0.8,0.8-1.1,1.4c-0.3,0.6-0.4,1.3-0.4,2.1c0,0.7,0.1,1.4,0.4,2s0.6,1,1.1,1.3
				c0.5,0.3,1,0.5,1.6,0.5C173.5,25.1,173.7,25.1,173.7,25.1z M175.7,19.2C175.7,19.2,175.7,19.2,175.7,19.2c0.1,0,0.2,0,0.3,0.1
				l-0.1,0.1L175.7,19.2L175.7,19.2L175.7,19.2z M176.2,19.4C176.2,19.4,176.2,19.4,176.2,19.4c0,0-0.1,0-0.1-0.1l0.1-0.1
				C176.1,19.4,176.2,19.4,176.2,19.4z"/>
		</g>
		<g class="st0">
			<path class="st1" d="M104.2,41.7h4.1c1.3,0,2.4,0.2,3.2,0.5c0.8,0.4,1.5,0.9,2,1.7c1.1,1.5,1.6,3.4,1.6,5.8
				c0,2.5-0.6,4.4-1.7,5.7c-1.2,1.3-3,2-5.4,2h-3.8L104.2,41.7L104.2,41.7z M107.9,55.2c1.5,0,2.6-0.5,3.3-1.4s1.1-2.3,1.1-4.1
				c0-3.8-1.4-5.7-4.1-5.7h-1.2v11.1L107.9,55.2L107.9,55.2z"/>
			<path class="st1" d="M125.4,46.4c0.9,0.8,1.4,2,1.4,3.8v7.2h-2.7v-1.1c-0.5,0.4-1,0.8-1.6,1c-0.6,0.2-1.3,0.4-2,0.4
				c-1.2,0-2.2-0.3-2.8-0.9c-0.6-0.6-1-1.4-1-2.5c0-0.8,0.3-1.6,0.8-2.1c0.5-0.6,1.3-1,2.3-1.3c1-0.3,2.2-0.5,3.6-0.5h0.9
				c-0.1-1-0.3-1.8-0.8-2.2c-0.4-0.4-1.1-0.7-1.9-0.7c-0.5,0-1.1,0.1-1.7,0.4c-0.6,0.3-1.1,0.7-1.6,1.2l-1.4-1.9
				c0.7-0.7,1.5-1.2,2.4-1.5c0.8-0.3,1.7-0.5,2.5-0.5C123.2,45.2,124.4,45.6,125.4,46.4z M123.3,54.7c0.5-0.5,0.8-1.4,0.9-2.5h-0.6
				c-1.4,0-2.5,0.2-3.2,0.5c-0.7,0.3-1,0.8-1,1.5c0,0.5,0.2,0.8,0.5,1s0.8,0.3,1.4,0.3C122.1,55.5,122.8,55.3,123.3,54.7z"/>
			<path class="st1" d="M139.7,56.3c-0.6,0.5-1.3,0.8-1.9,1.1c-0.7,0.2-1.4,0.4-2.1,0.4c-1.2,0-2.2-0.4-2.8-1.1s-1-2-1-3.7
				c0-0.5,0-0.9,0.1-1.5l0.2-3.5h-2.5l0-2.3h2.6l0.2-2.8l3.1-0.5l0.1,0.3c0,0-0.1,0.1-0.1,0.2c-0.1,0.1-0.1,0.2-0.2,0.3
				s-0.1,0.3-0.1,0.4l-0.2,2h3.6l-0.1,2.3H135l-0.3,3.3c0,0.6-0.1,1-0.1,1.4c0,1,0.1,1.8,0.4,2.2c0.3,0.4,0.7,0.6,1.2,0.6
				c0.5,0,1-0.1,1.4-0.3c0.4-0.2,0.9-0.5,1.4-1L139.7,56.3z"/>
			<path class="st1" d="M150.6,46.4c0.9,0.8,1.4,2,1.4,3.8v7.2h-2.7v-1.1c-0.5,0.4-1,0.8-1.6,1c-0.6,0.2-1.3,0.4-2,0.4
				c-1.2,0-2.2-0.3-2.8-0.9s-1-1.4-1-2.5c0-0.8,0.3-1.6,0.8-2.1c0.5-0.6,1.3-1,2.3-1.3c1-0.3,2.2-0.5,3.6-0.5h0.9
				c-0.1-1-0.3-1.8-0.8-2.2c-0.4-0.4-1.1-0.7-1.9-0.7c-0.5,0-1.1,0.1-1.7,0.4s-1.1,0.7-1.6,1.2l-1.4-1.9c0.7-0.7,1.5-1.2,2.4-1.5
				s1.7-0.5,2.5-0.5C148.4,45.2,149.6,45.6,150.6,46.4z M148.5,54.7c0.5-0.5,0.8-1.4,0.9-2.5h-0.6c-1.4,0-2.5,0.2-3.2,0.5
				s-1,0.8-1,1.5c0,0.5,0.2,0.8,0.5,1s0.8,0.3,1.4,0.3C147.3,55.5,148,55.3,148.5,54.7z"/>
		</g>
		<g class="st0">
			<path class="st1" d="M104.6,71.9h3.1v0.3c-0.1,0.1-0.1,0.2-0.2,0.3c0,0.1,0,0.3,0,0.6v12.1h7.1v2.4h-10L104.6,71.9L104.6,71.9z"
				/>
			<path class="st1" d="M125.4,76.6c0.9,0.8,1.4,2,1.4,3.8v7.2h-2.7v-1.1c-0.5,0.4-1,0.8-1.6,1c-0.6,0.2-1.3,0.4-2,0.4
				c-1.2,0-2.2-0.3-2.8-0.9c-0.6-0.6-1-1.4-1-2.5c0-0.8,0.3-1.6,0.8-2.1c0.5-0.6,1.3-1,2.3-1.3c1-0.3,2.2-0.5,3.6-0.5h0.9
				c-0.1-1-0.3-1.8-0.8-2.2c-0.4-0.4-1.1-0.7-1.9-0.7c-0.5,0-1.1,0.1-1.7,0.4c-0.6,0.3-1.1,0.7-1.6,1.2l-1.4-1.9
				c0.7-0.7,1.5-1.2,2.4-1.5c0.8-0.3,1.7-0.5,2.5-0.5C123.2,75.5,124.4,75.9,125.4,76.6z M123.3,85c0.5-0.5,0.8-1.4,0.9-2.5h-0.6
				c-1.4,0-2.5,0.2-3.2,0.5c-0.7,0.3-1,0.8-1,1.5c0,0.5,0.2,0.8,0.5,1s0.8,0.3,1.4,0.3C122.1,85.8,122.8,85.5,123.3,85z"/>
			<path class="st1" d="M133.2,87.6c-0.5-0.3-1-0.6-1.4-1.1l-0.4,1.1h-2v-17h3v0.3c-0.1,0.1-0.1,0.2-0.2,0.3c0,0.1,0,0.3,0,0.6v5
				c0.4-0.4,0.8-0.7,1.3-0.9c0.5-0.2,1-0.3,1.5-0.3c0.9,0,1.7,0.2,2.5,0.7c0.8,0.4,1.4,1.1,1.8,2c0.4,0.9,0.7,2,0.7,3.2
				c0,1.4-0.2,2.6-0.7,3.5c-0.5,1-1.1,1.7-1.9,2.2s-1.6,0.7-2.5,0.7C134.3,88,133.8,87.9,133.2,87.6z M135.8,85.3
				c0.4-0.3,0.7-0.7,1-1.2c0.3-0.6,0.4-1.3,0.4-2.2c0-1.2-0.2-2.2-0.7-2.9c-0.4-0.7-1.1-1.1-2-1.1c-0.8,0-1.4,0.3-1.7,1
				c-0.3,0.7-0.5,1.6-0.5,2.7c0,1.4,0.2,2.4,0.6,3.1c0.4,0.6,1,1,1.7,1C135,85.6,135.4,85.5,135.8,85.3z"/>
		</g>
	</g>
	<polygon class="st2" points="2.3,26 24,38.5 24,63.5 2.3,51 	"/>
	<polygon class="st2" points="2.3,51 24,63.5 24,88.5 2.3,76 	"/>
	<polygon class="st2" points="24,63.5 45.6,76 45.6,101 24,88.5 	"/>
	<polygon class="st2" points="45.6,26 67.3,38.5 67.3,63.5 45.6,51 	"/>
	<polygon class="st2" points="67.3,63.5 67.3,38.5 88.9,26 88.9,51 	"/>
	<polygon class="st2" points="67.3,88.5 67.3,63.5 88.9,51 88.9,76 	"/>
	<polygon class="st2" points="45.6,101 45.6,76 67.3,63.5 67.3,88.5 	"/>
	<polygon class="st2" points="24,63.5 24,38.5 45.6,26 45.6,51 	"/>
	<polygon class="st2" points="45.6,26 67.3,13.5 45.6,1 24,13.5 	"/>
	<polygon class="st2" points="45.6,76 67.3,63.5 45.6,51 24,63.5 	"/>
	<polygon class="st2" points="24,38.5 45.6,26 24,13.5 2.3,26 	"/>
	<polygon class="st2" points="67.3,38.5 88.9,26 67.3,13.5 45.6,26 	"/>
</g>
</svg>
