<?xml version="1.0" encoding="utf-8"?>
<!-- Generator: Adobe Illustrator 22.1.0, SVG Export Plug-In . SVG Version: 6.00 Build 0)  -->
<svg version="1.1" id="Layer_1" xmlns="http://www.w3.org/2000/svg" xmlns:xlink="http://www.w3.org/1999/xlink" x="0px" y="0px"
	 viewBox="0 0 180 89.9" style="enable-background:new 0 0 180 89.9;" xml:space="preserve">
<style type="text/css">
	.st0{fill:#CE3229;}
</style>
<g>
	<path d="M0,89.9V49.6h13.8c12.6,0,20.6,8.8,20.6,20.2c0,11.5-8.1,20.1-20.6,20.1L0,89.9L0,89.9z M29.2,69.8
		c0-8.7-5.5-15.7-15.5-15.7H5v31.4h8.8C23.6,85.4,29.2,78.4,29.2,69.8"/>
	<path d="M65.6,89.9l-10.2-16h-8.1v16h-5V49.6h16.2c7.4,0,12.7,4.7,12.7,12.2c0,7.3-5,11.2-10.5,11.7l10.9,16.4L65.6,89.9L65.6,89.9
		z M66,61.7c0-4.6-3.3-7.7-8.1-7.7H47.3v15.4h10.6C62.7,69.5,66,66.3,66,61.7"/>
	<path d="M107.9,89.9l-3.6-9H84.2l-3.6,9h-5.7l16.3-40.3h6.2l16.2,40.3H107.9z M94.3,54.7l-8.5,21.8h17.1L94.3,54.7z"/>
	<polygon points="118.9,89.9 118.9,49.6 145.3,49.6 145.3,54.1 123.9,54.1 123.9,67 144.9,67 144.9,71.5 123.9,71.5 123.9,89.9 	"/>
	<polygon points="162.2,89.9 162.2,54.1 149.4,54.1 149.4,49.6 180,49.6 180,54.1 167.2,54.1 167.2,89.9 	"/>
	<rect x="47.3" y="0.6" width="10.4" height="40.3"/>
	<path d="M87.5,40.9l-6.8-13.5h-5.3v13.5H64.9V0.6h20.2c9,0,14,5.9,14,13.4c0,7-4.2,10.8-8,12.1l8.2,14.9H87.5z M88.6,14
		c0-2.8-2.2-4.3-5-4.3h-8.2v8.7h8.2C86.3,18.3,88.6,16.8,88.6,14"/>
	<path d="M102,35.2l5.5-8.1c2.9,2.9,7.4,5.3,12.9,5.3c3.5,0,5.7-1.2,5.7-3.2c0-5.3-22.8-0.9-22.8-16.4C103.3,6,109,0,119.3,0
		c6.5,0,12.1,1.9,16.4,5.6l-5.7,7.8c-3.4-2.9-7.8-4.2-11.8-4.2c-3,0-4.3,1.1-4.3,2.8c0,5,22.8,1.2,22.8,16.2c0,8.1-6,13.5-16.8,13.5
		C111.7,41.7,106.1,39.1,102,35.2"/>
	<polygon points="149.5,40.9 149.5,9.7 138.2,9.7 138.2,0.6 171.2,0.6 171.2,9.7 159.9,9.7 159.9,40.9 	"/>
	<polygon points="41.7,9.6 41.7,0.5 18.7,0.5 18.7,7 12.1,7 12.1,40.8 22.5,40.8 22.5,24.9 41.3,24.9 41.3,15.9 22.5,15.9 22.5,9.6 
			"/>
	<polygon class="st0" points="18.7,7 12.1,7 18.7,0.5 	"/>
</g>
</svg>
